<?xml version="1.0" encoding="UTF-8" standalone="no"?>
<svg
   enable-background="new 0 0 595.275 311.111"
   xml:space="preserve"
   height="200"
   width="320"
   version="1.1"
   y="0px"
   x="0px"
   viewBox="0 0 35 0"
   id="svg2"
   inkscape:version="1.4 (e7c3feb1, 2024-10-09)"
   sodipodi:docname="installer-background.svg"
   xmlns:inkscape="http://www.inkscape.org/namespaces/inkscape"
   xmlns:sodipodi="http://sodipodi.sourceforge.net/DTD/sodipodi-0.dtd"
   xmlns="http://www.w3.org/2000/svg"
   xmlns:svg="http://www.w3.org/2000/svg"
   xmlns:rdf="http://www.w3.org/1999/02/22-rdf-syntax-ns#"
   xmlns:cc="http://creativecommons.org/ns#"
   xmlns:dc="http://purl.org/dc/elements/1.1/"><metadata
     id="metadata12"><rdf:RDF><cc:Work
         rdf:about=""><dc:format>image/svg+xml</dc:format><dc:type
           rdf:resource="http://purl.org/dc/dcmitype/StillImage" /></cc:Work></rdf:RDF></metadata><defs
     id="defs10" /><sodipodi:namedview
     pagecolor="#ffffff"
     bordercolor="#666666"
     borderopacity="1"
     objecttolerance="10"
     gridtolerance="10"
     guidetolerance="10"
     inkscape:pageopacity="0"
     inkscape:pageshadow="2"
     inkscape:window-width="2560"
     inkscape:window-height="1301"
     id="namedview8"
     showgrid="false"
     inkscape:zoom="1.18"
     inkscape:cx="-49.576271"
     inkscape:cy="100.84746"
     inkscape:window-x="1280"
     inkscape:window-y="25"
     inkscape:window-maximized="0"
     inkscape:current-layer="svg2"
     fit-margin-top="0"
     fit-margin-left="0"
     fit-margin-right="0"
     fit-margin-bottom="0"
     inkscape:showpageshadow="2"
     inkscape:pagecheckerboard="0"
     inkscape:deskcolor="#d1d1d1" /><rect
     x="0"
     y="0"
     width="320"
     height="200"
     fill="#20434f"
     id="rect1"
     style="stroke-width:0.494105" /><g
     id="g1"
     transform="matrix(0.390625,0,0,0.390625,59.992188,0)"><polygon
       points="255.98,342.75 271.89,333.57 271.89,267.12 329.08,234.1 329.08,215.78 313.18,206.6 255.6,239.84 198.83,207.06 182.93,216.24 182.93,234.56 240.12,267.58 240.12,333.59 "
       fill="#e2baff"
       id="polygon1" /><polygon
       points="256,103.24 401.95,187.5 401.95,150.82 256,66.56 110.05,150.82 110.05,187.5 "
       fill="#e2baff"
       id="polygon2" /><polygon
       points="256,445.43 401.95,361.17 401.95,324.5 256,408.76 110.06,324.5 110.06,361.17 "
       fill="#e2baff"
       id="polygon3" /></g></svg>
