<?xml version="1.0" encoding="UTF-8"?><svg id="a" xmlns="http://www.w3.org/2000/svg" width="16" height="16" viewBox="0 0 16 16"><polygon points="5.39 10.21 5.98 9.87 5.98 7.41 8.09 6.19 8.09 5.51 7.51 5.17 5.38 6.4 3.28 5.19 2.69 5.53 2.69 6.21 4.81 7.43 4.81 9.87 5.39 10.21" fill="#000" stroke-width="0"/><polygon points="10.79 3.11 5.39 0 5.39 0 5.39 0 0 3.11 0 4.47 5.39 1.36 10.79 4.47 10.79 3.11" fill="#000" stroke-width="0"/><polygon points="10.79 9.53 5.39 12.64 0 9.53 0 10.89 5.39 14 5.39 14 5.39 14 10.79 10.89 10.79 9.53" fill="#000" stroke-width="0"/></svg>