<?xml version="1.0" encoding="UTF-8"?><svg id="a" xmlns="http://www.w3.org/2000/svg" width="16" height="16" viewBox="0 0 16 16"><polygon points="5.39 10.21 5.98 9.87 5.98 7.41 8.09 6.19 8.09 5.52 7.5 5.18 5.38 6.4 3.28 5.19 2.69 5.53 2.69 6.21 4.8 7.43 4.8 9.87 5.39 10.21" fill="#000" stroke-width="0"/><polygon points="10.78 3.11 5.39 0 5.39 0 5.39 0 0 3.11 0 4.47 5.39 1.36 10.78 4.47 10.78 3.11" fill="#000" stroke-width="0"/><path d="M11.54,5.5l-4.45,2.59v3.56l-1.7,1L0,9.53v1.36l5.39,3.11,1.7-.98v.4l.72.41h.02s3.71,2.17,3.71,2.17l4.46-2.58v-5.33l-4.46-2.59ZM9.68,11.52h-1.52v-1.53h1.52v1.53ZM12.28,11.52h-1.53v-1.53h1.53v1.53ZM14.86,11.52h-1.52v-1.53h1.52v1.53Z" fill="#000" stroke-width="0"/></svg>