<?xml version="1.0" encoding="UTF-8"?><svg id="a" xmlns="http://www.w3.org/2000/svg" width="16" height="16" viewBox="0 0 16 16"><polygon points="5.39 10.21 5.98 9.87 5.98 7.41 8.1 6.19 8.1 5.52 7.51 5.18 5.38 6.4 3.28 5.19 2.69 5.53 2.69 6.21 4.81 7.43 4.81 9.87 5.39 10.21" fill="#000" stroke-width="0"/><polygon points="10.79 3.11 5.39 0 5.39 0 5.39 0 0 3.11 0 4.47 5.39 1.36 10.79 4.47 10.79 3.11" fill="#000" stroke-width="0"/><path d="M11.53,5.5l-4.45,2.59v3.58l-1.69.98L0,9.53v1.36l5.38,3.11,1.69-.98v.41l.73.4h.01s3.71,2.17,3.71,2.17l4.47-2.58v-5.33l-4.47-2.59ZM12.06,13.96h-1.07v-4.45h1.07v4.45ZM11.52,8.92c-.37,0-.68-.3-.68-.68s.31-.69.68-.69c.39,0,.7.31.7.69s-.31.68-.7.68Z" fill="#000" stroke-width="0"/></svg>