<?xml version="1.0" encoding="UTF-8"?><svg id="a" xmlns="http://www.w3.org/2000/svg" width="16" height="16" viewBox="0 0 16 16"><polygon points="5.4 10.21 5.98 9.87 5.98 7.41 8.1 6.19 8.1 5.52 7.51 5.18 5.38 6.4 3.28 5.19 2.7 5.53 2.7 6.21 4.81 7.43 4.81 9.87 5.4 10.21" fill="#000" stroke-width="0"/><polygon points="10.79 3.11 5.4 0 5.4 0 5.4 0 0 3.11 0 4.47 5.4 1.36 10.79 4.47 10.79 3.11" fill="#000" stroke-width="0"/><path d="M11.53,5.5l-4.46,2.59v3.58l-1.67.98L0,9.53v1.36l5.4,3.11,1.67-.96v.39l.73.41h.01l3.72,2.16,4.47-2.58v-5.33l-4.47-2.59ZM13.54,13.51l-1.99-1.99-1.99,1.99-.75-.76,1.99-1.99-1.98-1.97.76-.76,1.97,1.98,1.98-1.98.75.76-1.97,1.97,1.99,1.99-.76.76Z" fill="#000" stroke-width="0"/></svg>