<?xml version="1.0" encoding="UTF-8"?><svg id="a" xmlns="http://www.w3.org/2000/svg" width="16" height="16" viewBox="0 0 16 16"><polygon points="5.39 10.21 5.98 9.87 5.98 7.41 8.09 6.19 8.09 5.52 7.5 5.18 5.38 6.41 3.28 5.19 2.69 5.53 2.69 6.21 4.81 7.43 4.81 9.87 5.39 10.21" fill="#e2baff" stroke-width="0"/><polygon points="10.78 3.11 5.39 0 5.39 0 5.39 0 0 3.11 0 4.47 5.39 1.36 10.78 4.47 10.78 3.11" fill="#e2baff" stroke-width="0"/><path d="M5.39,12.65L0,9.53v1.36l5.39,3.11,1.7-.98v-1.37l-1.7,1Z" fill="#e2baff" stroke-width="0"/><path d="M11.54,5.5l-4.45,2.59v5.33l.72.41h.02s3.71,2.17,3.71,2.17l4.46-2.58v-5.33l-4.46-2.59ZM9.68,11.52h-1.52v-1.53h1.52v1.53ZM12.28,11.52h-1.53v-1.53h1.53v1.53ZM14.86,11.52h-1.52v-1.53h1.52v1.53Z" fill="#20434f" stroke-width="0"/><path d="M8.16,9.99v1.53h1.52v-1.53h-1.52ZM10.75,9.99v1.53h1.53v-1.53h-1.53ZM13.34,9.99v1.53h1.52v-1.53h-1.52Z" fill="#fff" fill-rule="evenodd" stroke-width="0"/><path d="M11.54,5.5l-4.45,2.59v5.33l.72.41h.02s3.71,2.17,3.71,2.17l4.46-2.58v-5.33l-4.46-2.59ZM9.68,11.52h-1.52v-1.53h1.52v1.53ZM12.28,11.52h-1.53v-1.53h1.53v1.53ZM14.86,11.52h-1.52v-1.53h1.52v1.53Z" fill="#20434f" stroke-width="0"/><path d="M8.16,9.99v1.53h1.52v-1.53h-1.52ZM10.75,9.99v1.53h1.53v-1.53h-1.53ZM13.34,9.99v1.53h1.52v-1.53h-1.52Z" fill="#fff" fill-rule="evenodd" stroke-width="0"/></svg>