<?xml version="1.0" encoding="UTF-8"?><svg id="a" xmlns="http://www.w3.org/2000/svg" width="16" height="16" viewBox="0 0 16 16"><polygon points="5.4 10.21 5.98 9.87 5.98 7.41 8.1 6.19 8.1 5.52 7.51 5.18 5.38 6.41 3.28 5.19 2.7 5.53 2.7 6.21 4.81 7.43 4.81 9.87 5.4 10.21" fill="#e2baff" stroke-width="0"/><polygon points="10.79 3.11 5.4 0 5.4 0 5.4 0 0 3.11 0 4.47 5.4 1.36 10.79 4.47 10.79 3.11" fill="#e2baff" stroke-width="0"/><path d="M5.39,12.65L0,9.53v1.36l5.39,3.11,1.7-.98v-1.37l-1.7,1Z" fill="#e2baff" stroke-width="0"/><path d="M11.54,5.5l-4.45,2.59v5.23l.72.51h.02s3.71,2.17,3.71,2.17l4.46-2.58v-5.33l-4.46-2.59ZM11.12,13.04h-1.16v-4.57h1.16v4.57ZM13.13,13.04h-1.16v-4.57h1.16v4.57Z" fill="#ff9300" stroke-width="0"/><rect x="9.96" y="8.47" width="1.16" height="4.57" fill="#fff" stroke-width="0"/><rect x="11.97" y="8.47" width="1.16" height="4.57" fill="#fff" stroke-width="0"/><path d="M11.54,5.5l-4.45,2.59v5.23l.72.51h.02s3.71,2.17,3.71,2.17l4.46-2.58v-5.33l-4.46-2.59ZM11.12,13.04h-1.16v-4.57h1.16v4.57ZM13.13,13.04h-1.16v-4.57h1.16v4.57Z" fill="#ff9300" stroke-width="0"/><rect x="9.96" y="8.47" width="1.16" height="4.57" fill="#fff" stroke-width="0"/><rect x="11.97" y="8.47" width="1.16" height="4.57" fill="#fff" stroke-width="0"/></svg>