<?xml version="1.0" encoding="UTF-8"?><svg id="a" xmlns="http://www.w3.org/2000/svg" width="16" height="16" viewBox="0 0 16 16"><polygon points="5.39 10.21 5.98 9.87 5.98 7.41 8.1 6.19 8.1 5.52 7.51 5.18 5.38 6.41 3.28 5.19 2.69 5.53 2.69 6.21 4.81 7.43 4.81 9.87 5.39 10.21" fill="#e2baff" stroke-width="0"/><polygon points="10.79 3.11 5.39 0 5.39 0 5.39 0 0 3.11 0 4.47 5.39 1.36 10.79 4.47 10.79 3.11" fill="#e2baff" stroke-width="0"/><path d="M5.4,12.65L0,9.53v1.36l5.4,3.11,1.67-.96v-1.37l-1.67.98Z" fill="#e2baff" stroke-width="0"/><path d="M11.53,5.5l-4.46,2.59v5.34l.73.41h.01l3.72,2.16,4.47-2.58v-5.33l-4.47-2.59ZM13.54,13.51l-1.99-1.99-1.99,1.99-.75-.76,1.99-1.99-1.98-1.97.76-.76,1.97,1.98,1.98-1.98.75.76-1.97,1.97,1.99,1.99-.76.76Z" fill="#f1554c" stroke-width="0"/><polygon points="14.3 12.75 13.54 13.51 11.55 11.52 9.56 13.51 8.81 12.75 10.8 10.76 8.82 8.79 9.58 8.03 11.55 10.01 13.53 8.03 14.28 8.79 12.31 10.76 14.3 12.75" fill="#fff" stroke-width="0"/><polygon points="14.3 12.75 13.54 13.51 11.55 11.52 9.56 13.51 8.81 12.75 10.8 10.76 8.82 8.79 9.58 8.03 11.55 10.01 13.53 8.03 14.28 8.79 12.31 10.76 14.3 12.75" fill="#fff" stroke-width="0"/><path d="M11.53,5.5l-4.46,2.59v5.34l.73.41h.01l3.72,2.16,4.47-2.58v-5.33l-4.47-2.59ZM13.54,13.51l-1.99-1.99-1.99,1.99-.75-.76,1.99-1.99-1.98-1.97.76-.76,1.97,1.98,1.98-1.98.75.76-1.97,1.97,1.99,1.99-.76.76Z" fill="#f1554c" stroke-width="0"/><polygon points="14.3 12.75 13.54 13.51 11.55 11.52 9.56 13.51 8.81 12.75 10.8 10.76 8.82 8.79 9.58 8.03 11.55 10.01 13.53 8.03 14.28 8.79 12.31 10.76 14.3 12.75" fill="#fff" stroke-width="0"/><polygon points="14.3 12.75 13.54 13.51 11.55 11.52 9.56 13.51 8.81 12.75 10.8 10.76 8.82 8.79 9.58 8.03 11.55 10.01 13.53 8.03 14.28 8.79 12.31 10.76 14.3 12.75" fill="#fff" stroke-width="0"/></svg>