<?xml version="1.0" encoding="UTF-8"?><svg id="a" xmlns="http://www.w3.org/2000/svg" width="16" height="16" viewBox="0 0 16 16"><polygon points="5.4 10.22 5.99 9.88 5.99 7.42 8.1 6.2 8.1 5.52 7.51 5.18 5.38 6.41 3.28 5.2 2.7 5.54 2.7 6.22 4.81 7.44 4.81 9.88 5.4 10.22" fill="#e2baff" stroke-width="0"/><polygon points="10.8 3.12 5.4 0 5.4 0 5.4 0 0 3.12 0 4.48 5.4 1.36 10.8 4.48 10.8 3.12" fill="#e2baff" stroke-width="0"/><path d="M5.42,12.65L.02,9.52v1.37l5.4,3.11,1.68-.97v-1.35l-1.68.97Z" fill="#e2baff" stroke-width="0"/><path d="M11.56,5.5l-4.46,2.59v5.32l.72.42v.02h.02l3.72,2.15,4.44-2.58v-5.33l-4.44-2.59ZM14.84,11.67c-.02.11-.05.2-.09.3-.14.38-.35.71-.62,1.02l-.21.2c-.58.56-1.35.9-2.22.9s-1.64-.34-2.2-.88c-.22-.18-.38-.37-.51-.6l-.59.74-.18-1.87.28-.04.72-.13.86-.16h.02l-.64.81h0c.11.2.23.38.39.54.06.09.16.17.24.24.44.37.99.6,1.61.6s1.2-.24,1.64-.62c.3-.27.56-.6.7-1l.83-.15s0,.07-.03.1ZM14.89,10.11l-.71.12-.86.16h-.02l.63-.8v-.02c-.1-.19-.23-.37-.38-.53-.06-.09-.16-.17-.24-.24-.44-.37-1-.6-1.61-.6s-1.2.24-1.64.63c-.31.26-.57.6-.71.99l-.82.15s.01-.07.02-.1c.02-.1.06-.19.09-.3.15-.38.35-.71.62-1.02l.22-.2c.58-.55,1.35-.89,2.22-.89s1.63.34,2.2.87c.21.18.37.37.51.6l.59-.74.18,1.87-.29.05Z" fill="#239eb1" stroke-width="0"/><path d="M15.18,10.06l-.29.05-.71.12-.86.16h-.02l.63-.8v-.02c-.1-.19-.23-.37-.38-.53-.06-.09-.16-.17-.24-.24-.44-.37-1-.6-1.61-.6s-1.2.24-1.64.63c-.31.26-.57.6-.71.99l-.82.15s.01-.07.02-.1c.02-.1.06-.19.09-.3.15-.38.35-.71.62-1.02l.22-.2c.58-.55,1.35-.89,2.22-.89s1.63.34,2.2.87c.21.18.37.37.51.6l.59-.74.18,1.87Z" fill="#fff" stroke-width="0"/><path d="M14.87,11.57s0,.07-.03.1c-.02.11-.05.2-.09.3-.14.38-.35.71-.62,1.02l-.21.2c-.58.56-1.35.9-2.22.9s-1.64-.34-2.2-.88c-.22-.18-.38-.37-.51-.6l-.59.74-.18-1.87.28-.04.72-.13.86-.16h.02l-.64.81h0c.11.2.23.38.39.54.06.09.16.17.24.24.44.37.99.6,1.61.6s1.2-.24,1.64-.62c.3-.27.56-.6.7-1l.83-.15Z" fill="#fff" stroke-width="0"/><path d="M11.56,5.5l-4.46,2.59v5.32l.72.42v.02h.02l3.72,2.15,4.44-2.58v-5.33l-4.44-2.59ZM14.84,11.67c-.02.11-.05.2-.09.3-.14.38-.35.71-.62,1.02l-.21.2c-.58.56-1.35.9-2.22.9s-1.64-.34-2.2-.88c-.22-.18-.38-.37-.51-.6l-.59.74-.18-1.87.28-.04.72-.13.86-.16h.02l-.64.81h0c.11.2.23.38.39.54.06.09.16.17.24.24.44.37.99.6,1.61.6s1.2-.24,1.64-.62c.3-.27.56-.6.7-1l.83-.15s0,.07-.03.1ZM14.89,10.11l-.71.12-.86.16h-.02l.63-.8v-.02c-.1-.19-.23-.37-.38-.53-.06-.09-.16-.17-.24-.24-.44-.37-1-.6-1.61-.6s-1.2.24-1.64.63c-.31.26-.57.6-.71.99l-.82.15s.01-.07.02-.1c.02-.1.06-.19.09-.3.15-.38.35-.71.62-1.02l.22-.2c.58-.55,1.35-.89,2.22-.89s1.63.34,2.2.87c.21.18.37.37.51.6l.59-.74.18,1.87-.29.05Z" fill="#239eb1" stroke-width="0"/><path d="M15.18,10.06l-.29.05-.71.12-.86.16h-.02l.63-.8v-.02c-.1-.19-.23-.37-.38-.53-.06-.09-.16-.17-.24-.24-.44-.37-1-.6-1.61-.6s-1.2.24-1.64.63c-.31.26-.57.6-.71.99l-.82.15s.01-.07.02-.1c.02-.1.06-.19.09-.3.15-.38.35-.71.62-1.02l.22-.2c.58-.55,1.35-.89,2.22-.89s1.63.34,2.2.87c.21.18.37.37.51.6l.59-.74.18,1.87Z" fill="#fff" stroke-width="0"/><path d="M14.87,11.57s0,.07-.03.1c-.02.11-.05.2-.09.3-.14.38-.35.71-.62,1.02l-.21.2c-.58.56-1.35.9-2.22.9s-1.64-.34-2.2-.88c-.22-.18-.38-.37-.51-.6l-.59.74-.18-1.87.28-.04.72-.13.86-.16h.02l-.64.81h0c.11.2.23.38.39.54.06.09.16.17.24.24.44.37.99.6,1.61.6s1.2-.24,1.64-.62c.3-.27.56-.6.7-1l.83-.15Z" fill="#fff" stroke-width="0"/></svg>